<svg width="68" height="74" viewBox="0 0 68 74" fill="none" xmlns="http://www.w3.org/2000/svg">
<path d="M0 8C0 3.58172 3.58172 0 8 0H60C64.4183 0 68 3.58172 68 8V59.0809C68 63.1643 64.6897 66.4746 60.6063 66.4746H59.8262C58.0841 66.4746 56.4356 67.2627 55.3417 68.6186V68.6186C53.0822 71.4191 48.837 71.4865 46.4898 68.759L46.3148 68.5558C45.1778 67.2345 43.5212 66.4746 41.778 66.4746H8C3.58172 66.4746 0 62.8929 0 58.4746V8Z" fill="#3B3D78"/>
<path fill-rule="evenodd" clip-rule="evenodd" d="M32.2624 14.0589C30.1688 14.0589 28.3569 15.0399 27.2377 16.8675C26.9599 17.1483 26.819 17.4292 26.819 17.5716C23.8919 13.074 25.5667 10.4039 31.8437 9.70371C30.0279 8.86115 27.9382 8.71874 26.1224 9.56131C24.3106 10.4039 23.1914 12.2314 23.1914 14.3398C23.3323 16.3058 24.5884 17.9909 26.4003 18.695C26.1224 20.0993 26.2633 21.3611 26.819 22.627C27.1008 19.1143 29.1944 15.8825 32.2624 14.0589ZM28.3569 40.6096C30.8653 42.9948 32.9589 45.6649 34.6338 48.6159C34.0742 44.9648 31.7028 42.0138 28.3569 40.6096ZM48.7256 43.8414C47.1916 49.6009 43.9827 54.0945 39.3767 57.3263C37.8427 58.5882 36.3087 58.8691 34.7747 58.0265C29.0535 55.0795 24.5884 51.286 21.3795 46.6499C19.0081 42.9949 18.4485 40.0479 19.5638 37.6586C20.683 35.4118 23.3323 34.5692 27.2377 35.1309C29.8909 35.5502 30.5875 34.2884 29.3313 31.6183C31.1471 34.0075 30.7284 36.2543 27.7973 36.3928C24.0288 36.2543 21.9391 36.9545 21.5204 38.5012C20.5421 42.5755 25.5667 49.8817 36.7274 56.0605C42.0299 53.6713 45.9354 49.6009 48.7256 43.8414ZM35.4713 33.0225C34.9117 35.5502 35.3304 38.2203 36.7274 40.3287C34.0742 37.7971 33.2368 34.146 34.356 30.6333C38.2614 33.0225 43.8418 29.7907 43.4231 27.1206C43.1452 26.1396 43.4231 25.4355 43.9827 25.1547C44.9571 23.8928 45.6576 21.7844 46.0763 18.5526C46.632 21.9229 46.2133 24.3121 45.098 25.9972C44.9571 26.1396 44.9571 26.7013 44.9571 27.4015C45.3758 30.9142 41.0516 34.4268 35.4713 33.0225ZM38.821 24.3121C39.0989 25.0162 39.6546 25.5779 40.3551 25.5779C41.1925 25.5779 41.7482 25.0162 41.8891 24.3121C41.0516 24.8738 39.7955 24.8738 38.821 24.3121ZM27.9382 29.5099C28.4939 29.7907 29.0535 30.0716 29.6092 30.214C32.4033 30.4948 34.9117 28.3865 37.2831 23.8928C38.958 19.9569 41.8891 17.9909 46.2133 17.9909C41.4703 16.7251 38.2614 17.9909 36.3087 21.7844C33.9373 26.5589 31.7028 28.8097 29.4722 28.6673C27.2377 28.5289 27.7973 26.4205 30.1688 25.5779C29.0535 25.4355 27.9382 25.8588 27.2377 26.8398C26.9599 27.263 26.819 27.8248 26.9599 28.248C27.1008 28.8097 27.3786 29.229 27.9382 29.5099ZM30.1688 12.7931C32.4033 11.8121 34.6338 11.5312 36.8644 11.6697C33.7964 13.2164 31.7028 16.3058 31.5658 19.8184C32.5402 17.1483 34.6338 15.0399 37.1462 13.7781C39.7955 12.6547 42.8635 12.9355 45.098 14.7591C47.3285 16.5866 48.4477 19.5376 47.8881 22.4885C51.9345 11.8121 37.7018 6.89517 30.1688 12.7931Z" fill="white"/>
</svg>
